<?xml version="1.0" encoding="UTF-8"?><svg id="Layer_1" xmlns="http://www.w3.org/2000/svg" viewBox="0 0 124.33 136"><defs><style>.cls-1{fill:#b3cfeb;}</style></defs><path class="cls-1" d="M122.74,31.96L62.9.46c-.46-.24-1.01-.24-1.47,0L1.59,31.96c-.51.28-.83.81-.84,1.39v69.29c0,.58.32,1.12.84,1.39l59.84,31.5s.05.02.08.03c.04.02.07.03.11.04.35.15.74.15,1.09,0,.04-.01.07-.02.11-.04.03-.01.05-.02.08-.03l59.84-31.5c.52-.27.84-.81.84-1.39V33.35c0-.58-.33-1.11-.84-1.39ZM62.16,3.64l56.46,29.72-56.46,29.72L5.7,33.35,62.16,3.64ZM3.9,35.96l56.69,29.84v65.73L3.9,101.7V35.96ZM120.43,101.69l-56.69,29.84v-65.73l56.69-29.84v65.73Z"/></svg>