<?xml version="1.0" encoding="UTF-8"?><svg id="Layer_1" xmlns="http://www.w3.org/2000/svg" viewBox="0 0 1231.2 492.25"><defs><style>.cls-1{letter-spacing:0em;}.cls-2{letter-spacing:0em;}.cls-3{letter-spacing:0em;}.cls-4{letter-spacing:-.02em;}.cls-5{letter-spacing:0em;}.cls-6{font-size:14px;}.cls-6,.cls-7{font-family:MerriweatherSans-Light, 'Merriweather Sans';font-weight:300;}.cls-8,.cls-9{font-size:20px;}.cls-8,.cls-10{font-family:MerriweatherSans-Bold, 'Merriweather Sans';font-weight:700;}.cls-11{fill:#f2f2f2;}.cls-12{letter-spacing:0em;}.cls-13{letter-spacing:0em;}.cls-14{letter-spacing:-.01em;}.cls-15{fill:none;stroke:#333;stroke-miterlimit:10;}</style></defs><line class="cls-15" x1="25.3" y1="102.09" x2="25.3" y2="290.52"/><line class="cls-15" x1="233.64" y1="102.09" x2="233.64" y2="480.48"/><rect class="cls-11" x="39.36" y="174.09" width="335.49" height="116.43"/><line class="cls-15" x1="441.98" y1="102.09" x2="441.98" y2="290.52"/><line class="cls-15" x1="858.66" y1="102.09" x2="858.66" y2="290.52"/><rect class="cls-11" x="247.7" y="364.05" width="335.49" height="116.43"/><line class="cls-15" x1="650.32" y1="102.09" x2="650.32" y2="480.48"/><rect class="cls-11" x="664.38" y="364.05" width="335.49" height="116.43"/><rect class="cls-11" x="456.04" y="174.09" width="335.49" height="116.43"/><rect class="cls-11" x="875.84" y="174.09" width="335.49" height="116.43"/><text class="cls-8" transform="translate(62.21 210.7)"><tspan x="0" y="0">xx de </tspan><tspan class="cls-12" x="54.69" y="0">ag</tspan><tspan class="cls-13" x="78.83" y="0">osto</tspan></text><text class="cls-6" transform="translate(62.61 237.72)"><tspan class="cls-4" x="0" y="0">L</tspan><tspan x="6.92" y="0">o</tspan><tspan class="cls-14" x="15.27" y="0">r</tspan><tspan x="20.72" y="0">em ipsum dolor sit amet, consectetuer </tspan><tspan x="0" y="16.8">adipiscing elit, sed diam nonummy nibh </tspan><tspan class="cls-5" x="0" y="33.6">e</tspan><tspan x="7.7" y="33.6">uismod tincidunt ut l</tspan><tspan class="cls-5" x="143.69" y="33.6">a</tspan><tspan x="151.45" y="33.6">o</tspan><tspan class="cls-14" x="159.81" y="33.6">r</tspan><tspan x="165.25" y="33.6">eet dolo</tspan><tspan class="cls-3" x="218.2" y="33.6">r</tspan><tspan x="223.65" y="33.6">e </tspan></text><text class="cls-8" transform="translate(269.75 397.94)"><tspan x="0" y="0">xx de </tspan><tspan class="cls-12" x="54.69" y="0">ag</tspan><tspan class="cls-13" x="78.83" y="0">osto</tspan></text><text class="cls-6" transform="translate(270.16 424.96)"><tspan class="cls-4" x="0" y="0">L</tspan><tspan x="6.92" y="0">o</tspan><tspan class="cls-14" x="15.27" y="0">r</tspan><tspan x="20.72" y="0">em ipsum dolor sit amet, consectetuer </tspan><tspan x="0" y="16.8">adipiscing elit, sed diam nonummy nibh </tspan><tspan class="cls-5" x="0" y="33.6">e</tspan><tspan x="7.7" y="33.6">uismod tincidunt ut l</tspan><tspan class="cls-5" x="143.69" y="33.6">a</tspan><tspan x="151.45" y="33.6">o</tspan><tspan class="cls-14" x="159.81" y="33.6">r</tspan><tspan x="165.25" y="33.6">eet dolo</tspan><tspan class="cls-3" x="218.2" y="33.6">r</tspan><tspan x="223.65" y="33.6">e </tspan></text><text class="cls-8" transform="translate(476.74 208.58)"><tspan x="0" y="0">xx de </tspan><tspan class="cls-12" x="54.69" y="0">ag</tspan><tspan class="cls-13" x="78.83" y="0">osto</tspan></text><text class="cls-6" transform="translate(477.15 235.6)"><tspan class="cls-4" x="0" y="0">L</tspan><tspan x="6.92" y="0">o</tspan><tspan class="cls-14" x="15.27" y="0">r</tspan><tspan x="20.72" y="0">em ipsum dolor sit amet, consectetuer </tspan><tspan x="0" y="16.8">adipiscing elit, sed diam nonummy nibh </tspan><tspan class="cls-5" x="0" y="33.6">e</tspan><tspan x="7.7" y="33.6">uismod tincidunt ut l</tspan><tspan class="cls-5" x="143.69" y="33.6">a</tspan><tspan x="151.45" y="33.6">o</tspan><tspan class="cls-14" x="159.81" y="33.6">r</tspan><tspan x="165.25" y="33.6">eet dolo</tspan><tspan class="cls-3" x="218.2" y="33.6">r</tspan><tspan x="223.65" y="33.6">e </tspan></text><text class="cls-8" transform="translate(687.45 397.94)"><tspan x="0" y="0">xx de </tspan><tspan class="cls-12" x="54.69" y="0">ag</tspan><tspan class="cls-13" x="78.83" y="0">osto</tspan></text><text class="cls-6" transform="translate(687.86 424.96)"><tspan class="cls-4" x="0" y="0">L</tspan><tspan x="6.92" y="0">o</tspan><tspan class="cls-14" x="15.27" y="0">r</tspan><tspan x="20.72" y="0">em ipsum dolor sit amet, consectetuer </tspan><tspan x="0" y="16.8">adipiscing elit, sed diam nonummy nibh </tspan><tspan class="cls-5" x="0" y="33.6">e</tspan><tspan x="7.7" y="33.6">uismod tincidunt ut l</tspan><tspan class="cls-5" x="143.69" y="33.6">a</tspan><tspan x="151.45" y="33.6">o</tspan><tspan class="cls-14" x="159.81" y="33.6">r</tspan><tspan x="165.25" y="33.6">eet dolo</tspan><tspan class="cls-3" x="218.2" y="33.6">r</tspan><tspan x="223.65" y="33.6">e </tspan></text><text class="cls-8" transform="translate(898.13 208.58)"><tspan x="0" y="0">xx de </tspan><tspan class="cls-12" x="54.69" y="0">ag</tspan><tspan class="cls-13" x="78.83" y="0">osto</tspan></text><text class="cls-9" transform="translate(1028.48 35.59)"><tspan class="cls-10"><tspan x="0" y="0">2 de n</tspan><tspan class="cls-2" x="56.84" y="0">o</tspan><tspan class="cls-13" x="69.06" y="0">viemb</tspan><tspan class="cls-14" x="130.83" y="0">r</tspan><tspan x="139.4" y="0">e</tspan></tspan><tspan class="cls-7"><tspan x="0" y="24">Fiesta N</tspan><tspan class="cls-1" x="74.7" y="24">a</tspan><tspan class="cls-13" x="85.78" y="24">cio</tspan><tspan class="cls-14" x="113.22" y="24">n</tspan><tspan x="125.68" y="24">al</tspan></tspan><tspan class="cls-7"><tspan x="0" y="48">del</tspan><tspan class="cls-12" x="28.64" y="48"> </tspan><tspan x="32.08" y="48">Cu</tspan><tspan class="cls-12" x="57" y="48">b</tspan><tspan x="69.02" y="48">o</tspan></tspan></text><text class="cls-6" transform="translate(898.53 235.6)"><tspan class="cls-4" x="0" y="0">L</tspan><tspan x="6.92" y="0">o</tspan><tspan class="cls-14" x="15.27" y="0">r</tspan><tspan x="20.72" y="0">em ipsum dolor sit amet, consectetuer </tspan><tspan x="0" y="16.8">adipiscing elit, sed diam nonummy nibh </tspan><tspan class="cls-5" x="0" y="33.6">e</tspan><tspan x="7.7" y="33.6">uismod tincidunt ut l</tspan><tspan class="cls-5" x="143.69" y="33.6">a</tspan><tspan x="151.45" y="33.6">o</tspan><tspan class="cls-14" x="159.81" y="33.6">r</tspan><tspan x="165.25" y="33.6">eet dolo</tspan><tspan class="cls-3" x="218.2" y="33.6">r</tspan><tspan x="223.65" y="33.6">e </tspan></text><path class="cls-15" d="M999.87,50.01h-81.62c-1.86,14.74-14.43,26.14-29.68,26.14s-27.82-11.4-29.68-26.14h-148.99c-1.86,14.74-14.43,26.14-29.68,26.14s-27.82-11.4-29.68-26.14h-148.99c-1.86,14.74-14.43,26.14-29.68,26.14s-27.82-11.4-29.68-26.14h-148.99c-1.86,14.74-14.43,26.14-29.68,26.14s-27.82-11.4-29.68-26.14H84.89c-1.86,14.74-14.43,26.14-29.68,26.14-16.53,0-29.92-13.4-29.92-29.92s13.4-29.92,29.92-29.92c15.24,0,27.82,11.4,29.68,26.14h148.99c1.86-14.74,14.43-26.14,29.68-26.14s27.82,11.4,29.68,26.14h148.99c1.86-14.74,14.43-26.14,29.68-26.14s27.82,11.4,29.68,26.14h148.99c1.86-14.74,14.43-26.14,29.68-26.14s27.82,11.4,29.68,26.14h148.99c1.86-14.74,14.43-26.14,29.68-26.14s27.82,11.4,29.68,26.14h81.62"/></svg>