<?xml version="1.0" encoding="UTF-8"?>
<svg id="Layer_1" xmlns="http://www.w3.org/2000/svg" version="1.1" viewBox="0 0 800 800">
  <!-- Generator: Adobe Illustrator 29.6.1, SVG Export Plug-In . SVG Version: 2.1.1 Build 9)  -->
  <defs>
    <style>
      .st0 {
        fill: #cfcfcf;
      }
    </style>
  </defs>
  <path class="st0" d="M677.2,145.7c-51.9-23.8-106.6-40.8-162.8-50.5-1.1-.2-2.1.3-2.6,1.2-7,12.5-14.8,28.8-20.3,41.7-60.6-9.2-122.3-9.2-182.9,0-6.1-14.3-12.9-28.2-20.6-41.7-.5-.9-1.6-1.4-2.6-1.2-56.2,9.7-111,26.7-162.8,50.5-.4.2-.8.5-1.1.9C17.8,301.5-10.7,452.7,3.3,601.9c0,.7.4,1.4,1,1.9,60.4,44.7,127.9,78.9,199.8,101,1,.3,2.2,0,2.8-.9,15.4-21,29.1-43.2,40.9-66.5.6-1.2.2-2.8-1.1-3.4,0,0-.2,0-.3-.1-21.6-8.2-42.4-18.2-62.4-29.7-1.2-.7-1.6-2.3-.9-3.5.2-.3.4-.6.7-.8,4.2-3.1,8.3-6.4,12.4-9.7.7-.6,1.7-.7,2.6-.3,130.9,59.8,272.7,59.8,402.1,0,.9-.4,1.9-.3,2.6.3,4,3.3,8.2,6.6,12.4,9.7,1.1.9,1.4,2.5.5,3.6-.2.3-.4.5-.7.6-19.9,11.7-40.8,21.6-62.4,29.7-1.3.5-2,2-1.5,3.3,0,0,0,.2.1.3,12,23.3,25.7,45.4,40.8,66.4.6.9,1.8,1.3,2.8.9,71.9-22,139.6-56.2,200.1-101,.6-.4,1-1.1,1.1-1.8,16.7-172.6-27.9-322.5-118.3-455.3-.2-.4-.6-.8-1-1h0ZM267.3,511c-39.4,0-71.9-36.2-71.9-80.6s31.9-80.6,71.9-80.6,72.5,36.5,71.9,80.7c0,44.4-31.9,80.6-71.9,80.6h0ZM533.2,511c-39.4,0-71.9-36.2-71.9-80.6s31.8-80.6,71.9-80.6,72.5,36.5,71.9,80.7c0,44.4-31.5,80.6-71.9,80.6h0Z"/>
</svg>