<?xml version="1.0" encoding="UTF-8"?>
<svg id="Layer_1" xmlns="http://www.w3.org/2000/svg" version="1.1" viewBox="0 0 800 800">
  <!-- Generator: Adobe Illustrator 29.6.1, SVG Export Plug-In . SVG Version: 2.1.1 Build 9)  -->
  <defs>
    <style>
      .st0 {
        fill: #cfcfcf;
      }
    </style>
  </defs>
  <path class="st0" d="M524,93h-248.1c-101.1,0-182.9,82-182.9,182.9v248.1c0,101,82,182.9,182.9,183h248.1c101,0,182.9-82,183-183v-248.1c0-101.1-82-182.9-183-182.9h0ZM645.3,524c0,66.8-54.3,121.1-121.1,121.1h-248.2c-66.8,0-121.1-54.3-121.1-121.1h0v-248.1c0-66.8,54.3-121.1,121.1-121.1h248.1c66.8,0,121.1,54.3,121.1,121.1v248.1h0Z"/>
  <path class="st0" d="M400,241.3c-87.6,0-158.7,71.2-158.7,158.7s71.2,158.7,158.7,158.7,158.7-71.2,158.7-158.7-71.1-158.7-158.7-158.7ZM400,497c-53.6,0-97-43.4-97-97s43.4-97,97-97,97,43.4,97,97-43.4,97-97,97h0ZM559.1,204.4c21,0,38.1,17.1,38,38.1,0,21-17.1,38.1-38.1,38-21,0-38-17.1-38-38s14.3-38.1,38.1-38.1h0Z"/>
</svg>