<?xml version="1.0" encoding="UTF-8"?>
<svg id="Layer_1" xmlns="http://www.w3.org/2000/svg" version="1.1" viewBox="0 0 1080 1080">
  <!-- Generator: Adobe Illustrator 29.6.1, SVG Export Plug-In . SVG Version: 2.1.1 Build 9)  -->
  <defs>
    <style>
      .st0 {
        fill: #4d4d4d;
      }
    </style>
  </defs>
  <path class="st0" d="M263.1,0c-2.8,0-5.5,1.1-7.5,3.1-2,1.9-3.1,4.6-3.1,7.4v61.4H106.6c-47.2,0-85.6,38.2-85.6,85.3v837.4c0,47.1,38.4,85.3,85.6,85.3h865.9c47.2,0,85.6-38.2,85.6-85.3V157.3c0-47.1-38.3-85.3-85.5-85.3h-146V10.5C826.5,4.7,821.8,0,816,0s-10.5,4.7-10.5,10.5v61.4h-255.3V10.5c0-2.8-1.1-5.5-3.1-7.4C545,1.1,542.3,0,539.5,0c-5.8,0-10.5,4.7-10.5,10.5v61.4h-255.4V10.5C273.6,4.7,268.9,0,263.1,0h0ZM106.6,93h145.9v61.4c0,2.8,1.1,5.5,3.1,7.5,2,2,4.7,3.1,7.5,3.1,2.8,0,5.5-1.1,7.4-3.1,2-2,3.1-4.7,3.1-7.5v-61.3h255.4v61.3c0,2.8,1.1,5.5,3.1,7.5,2,2,4.6,3.1,7.5,3.1,2.8,0,5.5-1.1,7.5-3.1,2-2,3.1-4.7,3.1-7.5v-61.3h255.3v61.3c0,2.8,1.1,5.5,3.1,7.5,2,2,4.7,3.1,7.5,3.1,2.8,0,5.5-1.1,7.5-3.1,2-2,3.1-4.7,3.1-7.5v-61.3h146c35.9,0,64.4,28.5,64.4,64.2v83.3H42.1v-83.3c0-35.7,28.6-64.2,64.5-64.2h0ZM42.1,261.6h994.8v545h-98.2c-47.2,0-85.5,38.2-85.5,85.3v98.4H106.6c-35.9,0-64.5-28.5-64.5-64.2V261.6ZM241.1,344.7c-17,0-31.1,14-31.1,31.1v95.9c0,17,14,31,31.1,31h95.9c17,0,31.1-14,31.1-31v-95.9c0-17-14-31.1-31.1-31.1h-95.9ZM491.6,344.7c-17,0-31,14-31,31.1v95.9c0,17,14,31,31,31h95.9c17,0,31.1-14,31.1-31v-95.9c0-17-14-31.1-31.1-31.1h-95.9ZM742.1,344.7c-17,0-31,14-31,31.1v95.9c0,17,14,31,31,31h95.9c17,0,31-14,31-31v-95.9c0-17-14-31.1-31-31.1h-95.9ZM241.1,365.8h95.9c5.7,0,10,4.3,10,10v95.9c0,5.7-4.3,9.9-10,9.9h-95.9c-5.7,0-10-4.2-10-9.9v-95.9c0-5.7,4.3-10,10-10h0ZM491.6,365.8h95.9c5.7,0,10,4.3,10,10v95.9c0,5.7-4.3,9.9-10,9.9h-95.9c-5.7,0-9.9-4.2-9.9-9.9v-95.9c0-5.7,4.2-10,9.9-10h0ZM742.1,365.8h95.9c5.7,0,9.9,4.3,9.9,10v95.9c0,5.7-4.2,9.9-9.9,9.9h-95.9c-5.7,0-10-4.2-10-9.9v-95.9c0-5.7,4.3-10,10-10ZM241.1,557.6c-17,0-31.1,14-31.1,31.1v95.9c0,17,14,31.1,31.1,31.1h95.9c17,0,31.1-14,31.1-31.1v-95.9c0-17-14-31.1-31.1-31.1h-95.9ZM491.6,557.6c-17,0-31,14-31,31.1v95.9c0,17,14,31.1,31,31.1h95.9c17,0,31.1-14,31.1-31.1v-95.9c0-17-14-31.1-31.1-31.1h-95.9ZM742.1,557.6c-17,0-31,14-31,31.1v95.9c0,17,14,31.1,31,31.1h95.9c17,0,31-14,31-31.1v-95.9c0-17-14-31.1-31-31.1h-95.9ZM241.1,578.8h95.9c5.7,0,10,4.2,10,9.9v95.9c0,5.7-4.3,10-10,10h-95.9c-5.7,0-10-4.2-10-9.9v-95.9c0-5.7,4.3-9.9,10-9.9h0ZM491.6,578.8h95.9c5.7,0,10,4.2,10,9.9v95.9c0,5.7-4.3,10-10,10h-95.9c-5.7,0-9.9-4.2-9.9-9.9v-95.9c0-5.7,4.2-9.9,9.9-9.9h0ZM742.1,578.8h95.9c5.7,0,9.9,4.2,9.9,9.9v95.9c0,5.7-4.2,10-9.9,10h-95.9c-5.7,0-10-4.3-10-10v-95.9c0-5.7,4.3-9.9,10-9.9ZM241.1,770.6c-17,0-31.1,14-31.1,31v95.9c0,17,14,31.1,31.1,31.1h95.9c17,0,31.1-14,31.1-31.1v-95.9c0-17-14-31-31.1-31h-95.9ZM491.5,770.6c-17,0-31,14-31,31v95.9c0,17,14,31.1,31,31.1h95.9c17,0,31.1-14,31.1-31.1v-95.9c0-17-14-31-31.1-31h-95.9ZM241.1,791.7h95.9c5.7,0,10,4.3,10,10v95.9c0,5.7-4.3,10-10,10h-95.9c-5.7,0-10-4.2-10-9.9v-95.9c0-5.7,4.3-10,10-10h0ZM491.5,791.7h95.9c5.7,0,10,4.3,10,10v95.9c0,5.7-4.3,10-10,10h-95.9c-5.7,0-9.9-4.2-9.9-9.9v-95.9c0-5.7,4.2-10,9.9-10h0ZM938.7,827.7h83.2l-28,28-119.7,119.7v-83.5c0-35.7,28.6-64.2,64.5-64.2h0ZM1036.9,842.6v152c0,35.7-28.6,64.2-64.5,64.2H106.5c-35.9,0-64.5-28.4-64.5-64.2v-12.6c15.7,17.9,38.8,29.2,64.5,29.2h757.2s0,0,.1,0c1.3,0,2.5-.2,3.7-.7l.5-.3c1.1-.5,2.2-1.2,3.1-2.1l165.7-165.7Z"/>
</svg>