<?xml version="1.0" encoding="UTF-8"?>
<svg id="Layer_1" xmlns="http://www.w3.org/2000/svg" version="1.1" viewBox="0 0 1080 1080">
  <!-- Generator: Adobe Illustrator 29.6.1, SVG Export Plug-In . SVG Version: 2.1.1 Build 9)  -->
  <defs>
    <style>
      .st0 {
        fill: #4d4d4d;
        fill-rule: evenodd;
      }
    </style>
  </defs>
  <path class="st0" d="M539.5,0c194.6,0,352.3,157.7,352.3,352.3s-202.1,409.7-339.2,583.1c-6.8,8.6-19.8,8.3-26.4-.3-135.6-173-339-380.3-339-582.8S344.9,0,539.5,0h0ZM780.9,850.8c83.2,10.2,152.7,25.3,200.7,43.8,40.7,15.6,64.2,31.8,64.2,46.9,0,24.6-53.6,49.4-140.2,69.4-201.6,46.7-530.5,46.7-732.1,0-86.6-20.1-140.2-44.8-140.2-69.4s23.5-31.4,64.5-47c48.2-18.4,117.9-33.6,201.3-43.8,21.9-2.6,17.9-35.8-3.9-33.2C210.3,827.6-.2,860.6-.2,941.5s63.5,78.2,166.2,102c206.8,47.9,540.2,47.9,747,0,102.7-23.8,166.2-59.7,166.2-102,0-80.8-209.7-113.6-294.3-123.9-21.9-2.7-25.9,30.5-4.1,33.2h0ZM539.5,165.6c-103.1,0-186.7,83.6-186.7,186.7,0,165.8,201.4,249.3,318.7,132,117.3-117.3,33.7-318.7-132-318.7h0ZM647.9,244c-96.3-96.3-261.6-27.7-261.6,108.3s165.3,204.6,261.6,108.3c59.8-59.8,59.8-156.8,0-216.7h0ZM765,126.9c-124.5-124.5-326.4-124.5-450.9,0-57.7,57.7-93.4,137.4-93.4,225.5,0,181.6,187.1,381.9,318.8,546,131.8-164.1,318.8-364.4,318.8-546,0-88-35.7-167.8-93.4-225.5Z"/>
</svg>