<?xml version="1.0" encoding="UTF-8"?>
<svg id="Layer_1" xmlns="http://www.w3.org/2000/svg" version="1.1" viewBox="0 0 1080 1080">
  <!-- Generator: Adobe Illustrator 29.6.1, SVG Export Plug-In . SVG Version: 2.1.1 Build 9)  -->
  <defs>
    <style>
      .st0 {
        fill: #4d4d4d;
      }
    </style>
  </defs>
  <path class="st0" d="M1045,108h-184.9c2.7-31.1,4.1-62.1,4.1-94.5s-5.4-13.5-13.5-13.5H229.7c-6.7,0-13.5,5.4-13.5,13.5,0,32.4,1.4,63.4,4.1,94.5H35.4c-6.7,0-13.5,5.4-13.5,13.5v24.3c0,218.7,162,406.3,376.6,440.1,25.6,24.3,54,43.2,83.7,52.6v89.1h-5.4c-24.3,0-44.6,20.2-44.6,44.6s5.4,22.9,13.5,31.1c-8.1,8.1-13.5,18.9-13.5,31.1s1.4,12.1,4.1,17.6h-76.9c-32.4,0-58.1,25.6-58.1,58.1v112c0,32.4,25.6,58.1,58.1,58.1h360.4c32.4,0,58.1-25.6,58.1-58.1v-112c0-32.4-25.6-58.1-58.1-58.1h-78.3c2.7-5.4,4.1-12.1,4.1-17.6,0-12.1-5.4-22.9-13.5-31.1,8.1-8.1,13.5-18.9,13.5-31.1,0-24.3-20.2-44.6-44.6-44.6h-4.1v-89.1c29.7-10.8,58.1-28.4,83.7-52.6,214.6-32.4,376.6-221.3,376.6-440.1v-24.3c0-6.7-5.4-13.5-12.1-13.5h0ZM956,205.2c-18.9,108-86.4,199.8-183.6,249.7,35.1-70.2,60.7-155.2,76.9-249.7h106.7ZM231.1,205.2c14.9,94.5,41.9,179.5,76.9,249.7-97.2-50-164.7-143.1-183.6-249.7h106.7ZM48.9,145.8v-10.8h172.8c1.4,14.9,2.7,29.7,5.4,43.2h-118.8c-4.1,0-6.7,1.4-9.4,4.1-2.7,2.7-4.1,6.7-2.7,10.8,17.6,135,106.6,249.7,232.2,299.7,12.1,21.6,27,41.9,40.5,58.1C183.9,507.6,48.9,338.8,48.9,145.8h0ZM719.7,878.8c17.6,0,31.1,14.9,31.1,31.1v112c0,17.6-14.9,31.1-31.1,31.1h-359.1c-17.6,0-31.1-14.9-31.1-31.1v-112c0-17.6,14.9-31.1,31.1-31.1h359.1ZM459.2,834.2c0-9.4,8.1-17.6,17.6-17.6h124.2c9.4,0,17.6,8.1,17.6,17.6s-8.1,17.6-17.6,17.6h-124.2c-9.4,1.4-17.6-6.7-17.6-17.6ZM600.9,753.2c9.4,0,17.6,8.1,17.6,17.6s-8.1,17.6-17.6,17.6h-124.2c-9.4,0-17.6-8.1-17.6-17.6s8.1-17.6,17.6-17.6h18.9c6.7,0,13.5-5.4,13.5-13.5v-95.9c10.8,1.4,20.2,2.7,31.1,2.7s20.2-1.4,31.1-2.7v95.9c0,6.7,5.4,13.5,13.5,13.5h16.2ZM669.8,561.6c-1.4,1.4-4.1,2.7-4.1,4.1-37.8,36.4-79.6,56.7-124.2,56.7s-86.4-20.2-124.2-56.7c-1.4-1.4-2.7-2.7-4.1-4.1-22.9-21.6-43.2-49.9-62.1-82.4,0-2.7-1.4-4.1-2.7-5.4-41.9-74.2-72.9-171.4-90.4-280.8v-1.4c-2.7-21.6-5.4-44.6-8.1-68.9-5.4-32.3-6.7-63.4-6.7-94.4h593.9c0,32.4-1.4,63.4-4.1,93.1-2.7,22.9-5.4,45.9-8.1,68.9v1.4c-16.2,110.7-48.6,207.9-90.4,280.8-1.4,1.4-2.7,4.1-2.7,5.4-18.9,33.7-39.1,60.7-62.1,83.7h0ZM1031.5,145.8c0,193-135,361.8-319.9,406.3,14.9-17.6,28.4-37.8,40.5-58.1,126.9-51.3,216-166,232.2-299.7,0-4.1-1.4-8.1-2.7-10.8-2.7-2.7-6.7-4.1-9.4-4.1h-118.8c1.4-14.9,4.1-28.4,5.4-43.2h172.8v9.4Z"/>
</svg>